<?xml version="1.0" standalone="no"?>
<!DOCTYPE svg PUBLIC "-//W3C//DTD SVG 20010904//EN"
 "http://www.w3.org/TR/2001/REC-SVG-20010904/DTD/svg10.dtd">
<svg version="1.0" xmlns="http://www.w3.org/2000/svg"
 width="1032.000000pt" height="325.000000pt" viewBox="0 0 1032.000000 325.000000"
 preserveAspectRatio="xMidYMid meet">
<metadata>
Created by potrace 1.16, written by Peter Selinger 2001-2019
</metadata>
<g transform="translate(0.000000,325.000000) scale(0.100000,-0.100000)"
fill="#000000" stroke="none">
<path d="M9056 2974 c-13 -13 -16 -42 -16 -164 0 -122 3 -151 16 -164 14 -14
70 -16 464 -16 394 0 450 2 464 16 23 23 23 305 0 328 -14 14 -70 16 -464 16
-394 0 -450 -2 -464 -16z"/>
<path d="M6685 2908 c-11 -6 -27 -14 -35 -18 -11 -5 -15 -25 -15 -76 l0 -69
98 -3 98 -3 -3 78 c-3 75 -4 78 -28 81 -14 2 -29 8 -34 13 -13 12 -56 10 -81
-3z"/>
<path d="M795 2845 c-30 -29 -31 -45 -4 -79 22 -27 57 -34 77 -14 9 9 12 8 12
-4 0 -33 -12 -48 -39 -48 -15 0 -32 5 -39 12 -9 9 -12 9 -12 -3 0 -22 40 -38
67 -28 12 4 26 17 32 28 14 25 14 161 1 161 -5 0 -10 -5 -10 -10 0 -7 -6 -7
-19 0 -29 15 -39 13 -66 -15z"/>
<path d="M2160 2155 c0 -13 54 -15 430 -15 376 0 430 2 430 15 0 13 -54 15
-430 15 -376 0 -430 -2 -430 -15z"/>
</g>
</svg>
