<?xml version="1.0" standalone="no"?>
<!DOCTYPE svg PUBLIC "-//W3C//DTD SVG 20010904//EN"
 "http://www.w3.org/TR/2001/REC-SVG-20010904/DTD/svg10.dtd">
<svg version="1.0" xmlns="http://www.w3.org/2000/svg"
 width="225.000000pt" height="225.000000pt" viewBox="0 0 225.000000 225.000000"
 preserveAspectRatio="xMidYMid meet">
<metadata>
Created by potrace 1.16, written by Peter Selinger 2001-2019
</metadata>
<g transform="translate(0.000000,225.000000) scale(0.100000,-0.100000)"
fill="#000000" stroke="none">
<path d="M1053 2220 c-54 -11 -115 -43 -161 -84 -31 -28 -47 -34 -99 -39 -34
-3 -66 -8 -72 -12 -7 -4 -11 -96 -11 -278 l0 -272 -35 -70 c-43 -86 -57 -171
-54 -325 1 -63 -1 -140 -6 -171 -12 -94 28 -168 101 -183 43 -9 55 10 52 76
-3 47 -1 53 17 53 25 0 24 -5 -13 -135 -48 -164 -65 -268 -52 -324 19 -84 62
-151 123 -191 25 -16 27 -22 27 -95 0 -89 17 -121 74 -140 39 -13 71 -3 102
31 32 36 44 83 44 169 0 60 -5 86 -24 126 -29 59 -45 133 -38 171 3 15 18 38
34 51 16 13 37 41 47 60 l18 36 16 -30 c8 -16 27 -40 41 -53 14 -14 26 -34 26
-46 0 -11 4 -25 9 -31 16 -15 52 -202 60 -304 10 -132 37 -179 102 -182 89 -3
112 35 128 207 6 66 16 160 21 208 11 98 2 186 -28 283 l-18 59 38 1 c78 2
126 81 113 183 -5 31 -7 108 -6 171 3 154 -11 239 -54 325 l-35 70 0 272 c0
182 -4 274 -11 278 -6 4 -38 9 -72 12 -53 5 -68 11 -101 41 -77 69 -202 103
-303 82z m192 -31 c79 -30 164 -114 195 -194 29 -77 31 -195 3 -275 -18 -50
-24 -58 -79 -87 -32 -18 -54 -32 -49 -33 6 0 34 13 62 29 29 16 55 26 58 21 6
-10 -21 -33 -70 -58 -22 -12 -35 -21 -30 -21 6 -1 30 10 54 24 23 14 47 25 52
25 16 0 120 -149 140 -200 19 -50 19 -53 2 -66 -26 -20 -120 -54 -148 -54 -17
0 -25 6 -25 18 0 15 -2 15 -10 2 -9 -13 -13 -12 -26 5 -17 21 -16 18 3 -25 12
-28 35 -209 27 -221 -2 -4 -30 -17 -62 -29 -41 -16 -87 -23 -162 -26 -100 -4
-114 4 -37 21 54 11 58 94 5 114 -34 13 -77 -6 -84 -37 -8 -34 -22 -52 -49
-63 -13 -5 -5 -6 23 -2 27 4 42 2 42 -5 0 -20 -59 -42 -133 -50 l-72 -7 101
-14 c168 -23 306 -9 427 44 12 5 17 3 17 -8 0 -25 -42 -66 -85 -82 -22 -8 -28
-13 -13 -10 14 3 33 8 41 11 11 4 16 -2 19 -17 2 -15 12 -25 28 -29 21 -5 29
-18 52 -87 42 -129 43 -124 -32 -151 -45 -17 -95 -26 -163 -29 l-98 -6 -21 51
c-12 28 -29 54 -37 57 -12 5 -13 3 -4 -6 12 -12 1 -60 -20 -86 -21 -28 -204
-5 -287 35 -41 20 -41 26 -4 144 20 63 29 77 47 80 14 2 23 11 25 26 3 18 8
22 25 17 16 -5 14 -1 -8 13 -16 10 -36 26 -44 35 -12 15 -11 17 5 17 13 1 9 5
-12 14 -28 13 -51 42 -40 53 2 3 18 -3 35 -11 16 -9 47 -16 68 -15 34 1 35 2
12 8 -48 15 -69 31 -69 54 0 13 5 28 12 35 9 9 7 12 -10 12 -24 0 -42 27 -26
39 5 3 10 19 11 35 1 16 7 34 14 40 8 8 9 0 4 -31 -6 -39 -5 -43 15 -43 11 0
34 7 50 15 39 20 53 -1 19 -28 -22 -18 -22 -19 -3 -13 12 4 41 12 65 19 58 17
81 54 59 95 -28 50 -120 35 -120 -20 0 -22 -34 -58 -56 -58 -14 0 -16 9 -11
60 3 33 1 58 -3 55 -5 -3 -11 1 -13 7 -3 8 -6 6 -6 -4 -1 -24 -37 -23 -103 2
-87 33 -91 38 -72 94 18 53 34 64 70 48 21 -10 26 -8 41 14 16 25 16 27 -1 40
-11 7 -24 15 -30 17 -11 4 50 87 64 87 4 0 28 -11 51 -25 24 -14 49 -25 54
-24 6 0 -8 9 -30 21 -49 25 -76 48 -70 58 3 5 29 -5 58 -21 28 -16 57 -29 62
-29 6 1 -17 15 -49 33 -49 26 -62 39 -73 72 -55 155 -25 303 82 411 90 91 227
119 350 73z m-438 -169 c-39 -79 -46 -170 -22 -274 20 -85 16 -105 -35 -166
l-29 -35 -1 236 c0 130 3 251 6 268 6 30 8 31 59 31 l52 0 -30 -60z m717 38
c3 -13 6 -133 6 -268 l-1 -245 -29 35 c-51 61 -55 81 -35 166 24 104 17 195
-22 274 l-30 60 53 0 c45 0 52 -3 58 -22z m-756 -794 c41 -6 61 -34 25 -34
-14 0 -15 -2 -4 -9 11 -7 11 -21 0 -82 -17 -101 -18 -98 14 -132 40 -44 61
-87 48 -100 -7 -7 -16 -6 -29 6 -46 42 -89 7 -71 -58 7 -25 7 -41 0 -48 -14
-14 -40 -2 -52 25 l-10 23 5 -22 c5 -30 -8 -30 -22 0 -7 14 -11 17 -12 7 -2
-23 -39 71 -39 101 -1 43 18 87 37 84 9 -1 12 0 6 2 -19 7 -24 41 -24 165 l0
117 43 -19 c24 -11 62 -22 85 -26z m842 -101 c-1 -86 4 -154 11 -180 11 -36
10 -50 -5 -99 -12 -37 -21 -52 -26 -44 -6 9 -10 7 -15 -9 -9 -28 -24 -27 -19
2 l5 22 -10 -23 c-12 -27 -38 -39 -52 -25 -7 7 -7 23 0 48 18 65 -25 100 -71
58 -13 -12 -22 -13 -29 -6 -13 13 7 54 48 98 30 33 31 39 13 129 -6 32 -9 67
-7 77 3 10 0 20 -6 22 -17 5 2 27 26 28 12 0 42 8 67 19 75 30 72 36 70 -117z
m-684 -578 c87 -18 102 -25 58 -26 -28 -1 -28 -1 -4 -8 16 -4 25 -14 25 -26 0
-11 -11 -26 -25 -33 l-25 -14 27 6 c30 7 32 2 44 -79 4 -27 14 -55 22 -61 18
-13 20 -145 3 -197 -12 -36 -46 -73 -71 -78 -29 -6 -68 11 -84 36 -23 34 -13
145 13 145 9 1 -1 7 -23 15 -52 18 -110 77 -137 139 -18 42 -21 63 -16 126 8
112 9 113 67 90 26 -10 83 -26 126 -35z m590 20 c11 -46 0 -221 -16 -241 -9
-11 -10 -15 -2 -10 15 9 15 3 -2 -38 -8 -19 -22 -39 -33 -45 -16 -11 -15 -11
6 -5 23 6 23 6 19 -69 -2 -57 -8 -80 -23 -97 -29 -33 -62 -42 -101 -30 -46 16
-66 52 -72 133 l-5 70 24 -7 c48 -15 73 -16 36 -2 -36 13 -66 40 -67 59 0 5 6
5 13 1 8 -5 8 -2 -2 9 -7 9 -20 45 -27 80 -17 78 -17 90 -1 82 6 -3 2 2 -10
11 -13 9 -23 26 -23 38 0 20 8 23 78 33 42 6 102 20 132 31 72 25 69 26 76 -3z"/>
<path d="M1034 2107 c-22 -8 -55 -24 -72 -37 -34 -25 -82 -110 -82 -143 0 -11
-12 -43 -26 -71 -23 -46 -25 -56 -15 -93 26 -95 114 -137 291 -137 166 0 256
43 280 136 10 34 8 46 -13 91 -14 29 -28 68 -32 87 -12 59 -52 117 -100 145
-54 32 -167 43 -231 22z m217 -63 c33 -17 71 -86 62 -113 -11 -30 -36 -51 -61
-51 -53 0 -132 72 -132 121 0 54 67 76 131 43z"/>
</g>
</svg>
