<?xml version="1.0" standalone="no"?>
<!DOCTYPE svg PUBLIC "-//W3C//DTD SVG 20010904//EN"
 "http://www.w3.org/TR/2001/REC-SVG-20010904/DTD/svg10.dtd">
<svg version="1.0" xmlns="http://www.w3.org/2000/svg"
 width="129.000000pt" height="129.000000pt" viewBox="0 0 129.000000 129.000000"
 preserveAspectRatio="xMidYMid meet">
<metadata>
Created by potrace 1.16, written by Peter Selinger 2001-2019
</metadata>
<g transform="translate(0.000000,129.000000) scale(0.100000,-0.100000)"
fill="#000000" stroke="none">
<path d="M404 1255 c-264 -57 -440 -317 -395 -581 25 -142 125 -289 239 -352
l42 -23 0 45 c0 40 -4 48 -37 73 -37 28 -113 118 -113 133 0 4 33 -5 73 -20
l72 -29 5 142 c3 78 8 147 12 153 4 6 12 39 17 74 6 35 14 67 19 72 5 5 38 11
75 15 l67 6 0 -42 c0 -39 1 -41 30 -41 29 0 30 2 30 41 l0 42 72 -7 c74 -7 88
-15 88 -53 0 -20 5 -23 36 -23 31 0 36 3 31 20 -3 11 -1 20 4 20 6 0 27 -9 49
-20 52 -26 180 -29 180 -4 0 43 -66 152 -134 220 -79 79 -149 117 -254 140
-81 17 -128 17 -208 -1z m-153 -605 c4 -36 6 -66 5 -67 -1 -1 -24 8 -51 21
-65 30 -115 73 -115 97 0 18 6 20 78 17 l77 -3 6 -65z"/>
<path d="M380 790 l-25 -19 0 -266 0 -267 24 -19 c22 -18 44 -19 397 -19 l373
0 28 24 28 24 0 257 0 257 -28 24 -28 24 -372 0 c-351 0 -373 -2 -397 -20z
m740 -285 l0 -225 -342 2 -343 3 -3 210 c-1 115 0 215 2 222 4 10 79 13 346
13 l340 0 0 -225z"/>
<path d="M290 130 c-11 -11 -20 -31 -20 -45 0 -14 9 -34 20 -45 19 -19 33 -20
485 -20 l466 0 24 25 c31 30 32 55 2 83 -23 22 -25 22 -490 22 -454 0 -468 -1
-487 -20z"/>
</g>
</svg>
